# xmcd
#
# Track frame offsets: 
#        150
#        17202
#        34627
#        49435
#        67637
#        86871
#        103144
#        118859
#        137349
#        155975
#        171555
#        188691
#        204578
#        224173
#        248348
#        268067
#        285769
#        303152
#
# Disc length: 4262 seconds
#
# Revision: 0
# Processed by: cddbd v1.5.2PL0 Copyright (c) Steve Scherf et al.
# Submitted via: ExactAudioCopy v1.0b1
#
DISCID=0710a412
DTITLE=Nicole Scherzinger - Killer Love
DYEAR=2011
DGENRE=Pop
TTITLE0=Poison
TTITLE1=Killer Love
TTITLE2=Don't Hold Your Breath
TTITLE3=Right There
TTITLE4=You Will Be Loved
TTITLE5=Wet
TTITLE6=Say Yes
TTITLE7=Club Banger Nation
TTITLE8=Power's Out (Feat. Sting)
TTITLE9=Desperate
TTITLE10=Everybody
TTITLE11=Heartbeat (Rude Wells Open Heart Remix)
TTITLE12=Casualty
TTITLE13=Amenjena
TTITLE14=Right There (Feat. 50 Cent)
TTITLE15=Try With Me
TTITLE16=Trust Me I Lie
TTITLE17=Tomorrow Never Dies
EXTD=
EXTT0=
EXTT1=
EXTT2=
EXTT3=
EXTT4=
EXTT5=
EXTT6=
EXTT7=
EXTT8=
EXTT9=
EXTT10=
EXTT11=
EXTT12=
EXTT13=
EXTT14=
EXTT15=
EXTT16=
EXTT17=
PLAYORDER=
